<mxfile host="Electron" modified="2023-05-01T01:33:44.545Z" agent="Mozilla/5.0 (Windows NT 10.0; Win64; x64) AppleWebKit/537.36 (KHTML, like Gecko) draw.io/21.2.1 Chrome/112.0.5615.87 Electron/24.1.2 Safari/537.36" etag="9feCWxBXHyoomTW_ccLF" version="21.2.1" type="device">
  <diagram name="第 1 页" id="v_Hk6eW-TLJx0R3ZPkqa">
    <mxGraphModel dx="1687" dy="1125" grid="1" gridSize="10" guides="1" tooltips="1" connect="1" arrows="1" fold="1" page="1" pageScale="1" pageWidth="827" pageHeight="1169" math="0" shadow="0">
      <root>
        <mxCell id="0" />
        <mxCell id="1" parent="0" />
        <mxCell id="Lkk8jv3GY44CJyBHPQSU-5" value="" style="edgeStyle=orthogonalEdgeStyle;rounded=0;orthogonalLoop=1;jettySize=auto;html=1;entryX=0.5;entryY=0;entryDx=0;entryDy=0;" edge="1" parent="1" source="Lkk8jv3GY44CJyBHPQSU-1" target="Lkk8jv3GY44CJyBHPQSU-6">
          <mxGeometry relative="1" as="geometry">
            <mxPoint x="413.2500000000002" y="170" as="targetPoint" />
          </mxGeometry>
        </mxCell>
        <mxCell id="Lkk8jv3GY44CJyBHPQSU-1" value="ADCSample()&lt;br&gt;ADC采集&amp;amp;数据校准换算程序&lt;br&gt;计算结果为实际电气值，格式fp32" style="rounded=0;whiteSpace=wrap;html=1;" vertex="1" parent="1">
          <mxGeometry x="306.5" y="60" width="214" height="60" as="geometry" />
        </mxCell>
        <mxCell id="Lkk8jv3GY44CJyBHPQSU-2" value="" style="endArrow=classic;html=1;rounded=0;entryX=0.5;entryY=0;entryDx=0;entryDy=0;exitX=0.5;exitY=1;exitDx=0;exitDy=0;" edge="1" parent="1" source="Lkk8jv3GY44CJyBHPQSU-3" target="Lkk8jv3GY44CJyBHPQSU-1">
          <mxGeometry width="50" height="50" relative="1" as="geometry">
            <mxPoint x="414" y="10" as="sourcePoint" />
            <mxPoint x="490" y="250" as="targetPoint" />
          </mxGeometry>
        </mxCell>
        <mxCell id="Lkk8jv3GY44CJyBHPQSU-3" value="HRPWM master timer快速中断" style="text;html=1;strokeColor=none;fillColor=none;align=center;verticalAlign=middle;whiteSpace=wrap;rounded=0;" vertex="1" parent="1">
          <mxGeometry x="317" width="193" height="25" as="geometry" />
        </mxCell>
        <mxCell id="Lkk8jv3GY44CJyBHPQSU-6" value="BuckBoostVLoopCtlPID()" style="swimlane;whiteSpace=wrap;html=1;startSize=20;" vertex="1" parent="1">
          <mxGeometry x="138" y="160" width="552" height="990" as="geometry" />
        </mxCell>
        <mxCell id="Lkk8jv3GY44CJyBHPQSU-9" value="" style="edgeStyle=orthogonalEdgeStyle;rounded=0;orthogonalLoop=1;jettySize=auto;html=1;entryX=0.5;entryY=0;entryDx=0;entryDy=0;" edge="1" parent="Lkk8jv3GY44CJyBHPQSU-6" source="Lkk8jv3GY44CJyBHPQSU-7" target="Lkk8jv3GY44CJyBHPQSU-11">
          <mxGeometry relative="1" as="geometry">
            <mxPoint x="276" y="150" as="targetPoint" />
          </mxGeometry>
        </mxCell>
        <mxCell id="Lkk8jv3GY44CJyBHPQSU-10" value="Yes" style="edgeLabel;html=1;align=center;verticalAlign=middle;resizable=0;points=[];" vertex="1" connectable="0" parent="Lkk8jv3GY44CJyBHPQSU-9">
          <mxGeometry x="0.1404" y="-1" relative="1" as="geometry">
            <mxPoint x="1" y="-3" as="offset" />
          </mxGeometry>
        </mxCell>
        <mxCell id="Lkk8jv3GY44CJyBHPQSU-16" style="edgeStyle=orthogonalEdgeStyle;rounded=0;orthogonalLoop=1;jettySize=auto;html=1;exitX=1;exitY=0.5;exitDx=0;exitDy=0;entryX=1;entryY=0;entryDx=0;entryDy=0;" edge="1" parent="Lkk8jv3GY44CJyBHPQSU-6" source="Lkk8jv3GY44CJyBHPQSU-7" target="Lkk8jv3GY44CJyBHPQSU-18">
          <mxGeometry relative="1" as="geometry">
            <mxPoint x="383" y="280" as="targetPoint" />
            <Array as="points">
              <mxPoint x="422" y="80" />
              <mxPoint x="422" y="265" />
            </Array>
          </mxGeometry>
        </mxCell>
        <mxCell id="Lkk8jv3GY44CJyBHPQSU-17" value="No" style="edgeLabel;html=1;align=center;verticalAlign=middle;resizable=0;points=[];" vertex="1" connectable="0" parent="Lkk8jv3GY44CJyBHPQSU-16">
          <mxGeometry x="0.2129" y="-1" relative="1" as="geometry">
            <mxPoint y="-46" as="offset" />
          </mxGeometry>
        </mxCell>
        <mxCell id="Lkk8jv3GY44CJyBHPQSU-7" value="DF.BBModeChange=1?" style="rhombus;whiteSpace=wrap;html=1;" vertex="1" parent="Lkk8jv3GY44CJyBHPQSU-6">
          <mxGeometry x="178" y="50" width="196" height="60" as="geometry" />
        </mxCell>
        <mxCell id="Lkk8jv3GY44CJyBHPQSU-14" value="" style="edgeStyle=orthogonalEdgeStyle;rounded=0;orthogonalLoop=1;jettySize=auto;html=1;entryX=0.5;entryY=0;entryDx=0;entryDy=0;" edge="1" parent="Lkk8jv3GY44CJyBHPQSU-6" source="Lkk8jv3GY44CJyBHPQSU-11" target="Lkk8jv3GY44CJyBHPQSU-18">
          <mxGeometry relative="1" as="geometry">
            <mxPoint x="276.0000000000002" y="250" as="targetPoint" />
          </mxGeometry>
        </mxCell>
        <mxCell id="Lkk8jv3GY44CJyBHPQSU-11" value="所有PID计算环路计算变量清零" style="rounded=0;whiteSpace=wrap;html=1;" vertex="1" parent="Lkk8jv3GY44CJyBHPQSU-6">
          <mxGeometry x="169" y="150" width="214" height="60" as="geometry" />
        </mxCell>
        <mxCell id="Lkk8jv3GY44CJyBHPQSU-20" style="edgeStyle=orthogonalEdgeStyle;rounded=0;orthogonalLoop=1;jettySize=auto;html=1;exitX=0;exitY=0.5;exitDx=0;exitDy=0;entryX=0.5;entryY=0;entryDx=0;entryDy=0;" edge="1" parent="Lkk8jv3GY44CJyBHPQSU-6" source="Lkk8jv3GY44CJyBHPQSU-18" target="Lkk8jv3GY44CJyBHPQSU-19">
          <mxGeometry relative="1" as="geometry" />
        </mxCell>
        <mxCell id="Lkk8jv3GY44CJyBHPQSU-25" value="NA0&lt;br&gt;初始化模式" style="edgeLabel;html=1;align=center;verticalAlign=middle;resizable=0;points=[];" vertex="1" connectable="0" parent="Lkk8jv3GY44CJyBHPQSU-20">
          <mxGeometry x="0.6089" y="-1" relative="1" as="geometry">
            <mxPoint x="1" as="offset" />
          </mxGeometry>
        </mxCell>
        <mxCell id="Lkk8jv3GY44CJyBHPQSU-22" value="" style="edgeStyle=orthogonalEdgeStyle;rounded=0;orthogonalLoop=1;jettySize=auto;html=1;entryX=0.5;entryY=0;entryDx=0;entryDy=0;" edge="1" parent="Lkk8jv3GY44CJyBHPQSU-6" source="Lkk8jv3GY44CJyBHPQSU-18" target="Lkk8jv3GY44CJyBHPQSU-28">
          <mxGeometry relative="1" as="geometry">
            <mxPoint x="276" y="360" as="targetPoint" />
          </mxGeometry>
        </mxCell>
        <mxCell id="Lkk8jv3GY44CJyBHPQSU-26" value="Buck模式" style="edgeLabel;html=1;align=center;verticalAlign=middle;resizable=0;points=[];" vertex="1" connectable="0" parent="Lkk8jv3GY44CJyBHPQSU-22">
          <mxGeometry x="0.2094" y="1" relative="1" as="geometry">
            <mxPoint x="-1" y="-10" as="offset" />
          </mxGeometry>
        </mxCell>
        <mxCell id="Lkk8jv3GY44CJyBHPQSU-24" style="edgeStyle=orthogonalEdgeStyle;rounded=0;orthogonalLoop=1;jettySize=auto;html=1;exitX=1;exitY=0.5;exitDx=0;exitDy=0;entryX=0.5;entryY=0;entryDx=0;entryDy=0;" edge="1" parent="Lkk8jv3GY44CJyBHPQSU-6" source="Lkk8jv3GY44CJyBHPQSU-18" target="Lkk8jv3GY44CJyBHPQSU-30">
          <mxGeometry relative="1" as="geometry">
            <mxPoint x="461.9999999999998" y="360" as="targetPoint" />
          </mxGeometry>
        </mxCell>
        <mxCell id="Lkk8jv3GY44CJyBHPQSU-27" value="Buck-Boost模式" style="edgeLabel;html=1;align=center;verticalAlign=middle;resizable=0;points=[];" vertex="1" connectable="0" parent="Lkk8jv3GY44CJyBHPQSU-24">
          <mxGeometry x="0.6793" y="-2" relative="1" as="geometry">
            <mxPoint x="2" y="-3" as="offset" />
          </mxGeometry>
        </mxCell>
        <mxCell id="Lkk8jv3GY44CJyBHPQSU-18" value="DF.BBFlag？" style="rhombus;whiteSpace=wrap;html=1;" vertex="1" parent="Lkk8jv3GY44CJyBHPQSU-6">
          <mxGeometry x="178" y="250" width="196" height="60" as="geometry" />
        </mxCell>
        <mxCell id="Lkk8jv3GY44CJyBHPQSU-19" value="所有PID计算环路&lt;br&gt;计算变量清零" style="rounded=0;whiteSpace=wrap;html=1;" vertex="1" parent="Lkk8jv3GY44CJyBHPQSU-6">
          <mxGeometry x="49" y="360" width="120" height="60" as="geometry" />
        </mxCell>
        <mxCell id="Lkk8jv3GY44CJyBHPQSU-48" style="edgeStyle=orthogonalEdgeStyle;rounded=0;orthogonalLoop=1;jettySize=auto;html=1;exitX=0.5;exitY=1;exitDx=0;exitDy=0;entryX=0.5;entryY=0;entryDx=0;entryDy=0;" edge="1" parent="Lkk8jv3GY44CJyBHPQSU-6" source="Lkk8jv3GY44CJyBHPQSU-28" target="Lkk8jv3GY44CJyBHPQSU-31">
          <mxGeometry relative="1" as="geometry" />
        </mxCell>
        <mxCell id="Lkk8jv3GY44CJyBHPQSU-28" value="DF.BBModeChange=1?" style="rhombus;whiteSpace=wrap;html=1;" vertex="1" parent="Lkk8jv3GY44CJyBHPQSU-6">
          <mxGeometry x="200" y="360" width="152" height="60" as="geometry" />
        </mxCell>
        <mxCell id="Lkk8jv3GY44CJyBHPQSU-34" value="" style="edgeStyle=orthogonalEdgeStyle;rounded=0;orthogonalLoop=1;jettySize=auto;html=1;" edge="1" parent="Lkk8jv3GY44CJyBHPQSU-6" source="Lkk8jv3GY44CJyBHPQSU-30" target="Lkk8jv3GY44CJyBHPQSU-33">
          <mxGeometry relative="1" as="geometry" />
        </mxCell>
        <mxCell id="Lkk8jv3GY44CJyBHPQSU-30" value="DF.BBModeChange=1?" style="rhombus;whiteSpace=wrap;html=1;" vertex="1" parent="Lkk8jv3GY44CJyBHPQSU-6">
          <mxGeometry x="376.5" y="360" width="152" height="60" as="geometry" />
        </mxCell>
        <mxCell id="Lkk8jv3GY44CJyBHPQSU-36" value="" style="edgeStyle=orthogonalEdgeStyle;rounded=0;orthogonalLoop=1;jettySize=auto;html=1;" edge="1" parent="Lkk8jv3GY44CJyBHPQSU-6" source="Lkk8jv3GY44CJyBHPQSU-31" target="Lkk8jv3GY44CJyBHPQSU-35">
          <mxGeometry relative="1" as="geometry" />
        </mxCell>
        <mxCell id="Lkk8jv3GY44CJyBHPQSU-31" value="初始化PID计算环路&lt;br&gt;PID参数为Buck模式&lt;br&gt;设定一些固定占空比" style="rounded=0;whiteSpace=wrap;html=1;" vertex="1" parent="Lkk8jv3GY44CJyBHPQSU-6">
          <mxGeometry x="41" y="470" width="136" height="60" as="geometry" />
        </mxCell>
        <mxCell id="Lkk8jv3GY44CJyBHPQSU-38" value="" style="edgeStyle=orthogonalEdgeStyle;rounded=0;orthogonalLoop=1;jettySize=auto;html=1;entryX=0.5;entryY=0;entryDx=0;entryDy=0;" edge="1" parent="Lkk8jv3GY44CJyBHPQSU-6" source="Lkk8jv3GY44CJyBHPQSU-33" target="Lkk8jv3GY44CJyBHPQSU-41">
          <mxGeometry relative="1" as="geometry">
            <mxPoint x="459" y="579.9999999999998" as="targetPoint" />
          </mxGeometry>
        </mxCell>
        <mxCell id="Lkk8jv3GY44CJyBHPQSU-33" value="初始化PID计算环路&lt;br&gt;PID参数为&lt;br&gt;Buck-Boost模式&lt;br&gt;设定一些固定占空比" style="rounded=0;whiteSpace=wrap;html=1;" vertex="1" parent="Lkk8jv3GY44CJyBHPQSU-6">
          <mxGeometry x="381.5" y="470" width="142" height="60" as="geometry" />
        </mxCell>
        <mxCell id="Lkk8jv3GY44CJyBHPQSU-40" value="" style="edgeStyle=orthogonalEdgeStyle;rounded=0;orthogonalLoop=1;jettySize=auto;html=1;" edge="1" parent="Lkk8jv3GY44CJyBHPQSU-6" source="Lkk8jv3GY44CJyBHPQSU-35" target="Lkk8jv3GY44CJyBHPQSU-39">
          <mxGeometry relative="1" as="geometry" />
        </mxCell>
        <mxCell id="Lkk8jv3GY44CJyBHPQSU-35" value="DF.BBModeChange=0" style="whiteSpace=wrap;html=1;rounded=0;" vertex="1" parent="Lkk8jv3GY44CJyBHPQSU-6">
          <mxGeometry x="41" y="580" width="136" height="60" as="geometry" />
        </mxCell>
        <mxCell id="Lkk8jv3GY44CJyBHPQSU-44" value="" style="edgeStyle=orthogonalEdgeStyle;rounded=0;orthogonalLoop=1;jettySize=auto;html=1;" edge="1" parent="Lkk8jv3GY44CJyBHPQSU-6" source="Lkk8jv3GY44CJyBHPQSU-39" target="Lkk8jv3GY44CJyBHPQSU-43">
          <mxGeometry relative="1" as="geometry" />
        </mxCell>
        <mxCell id="Lkk8jv3GY44CJyBHPQSU-39" value="PID环路计算&lt;br&gt;电流环与电压环竞争&lt;br&gt;输出最小值" style="whiteSpace=wrap;html=1;rounded=0;" vertex="1" parent="Lkk8jv3GY44CJyBHPQSU-6">
          <mxGeometry x="41" y="690" width="136" height="60" as="geometry" />
        </mxCell>
        <mxCell id="Lkk8jv3GY44CJyBHPQSU-46" value="" style="edgeStyle=orthogonalEdgeStyle;rounded=0;orthogonalLoop=1;jettySize=auto;html=1;" edge="1" parent="Lkk8jv3GY44CJyBHPQSU-6" source="Lkk8jv3GY44CJyBHPQSU-41" target="Lkk8jv3GY44CJyBHPQSU-45">
          <mxGeometry relative="1" as="geometry" />
        </mxCell>
        <mxCell id="Lkk8jv3GY44CJyBHPQSU-41" value="PID环路计算&lt;br&gt;电流环与电压环竞争&lt;br&gt;输出最小值" style="whiteSpace=wrap;html=1;rounded=0;" vertex="1" parent="Lkk8jv3GY44CJyBHPQSU-6">
          <mxGeometry x="383" y="580" width="139" height="60" as="geometry" />
        </mxCell>
        <mxCell id="Lkk8jv3GY44CJyBHPQSU-60" value="" style="edgeStyle=orthogonalEdgeStyle;rounded=0;orthogonalLoop=1;jettySize=auto;html=1;" edge="1" parent="Lkk8jv3GY44CJyBHPQSU-6" source="Lkk8jv3GY44CJyBHPQSU-43" target="Lkk8jv3GY44CJyBHPQSU-59">
          <mxGeometry relative="1" as="geometry" />
        </mxCell>
        <mxCell id="Lkk8jv3GY44CJyBHPQSU-43" value="输出限幅" style="whiteSpace=wrap;html=1;rounded=0;" vertex="1" parent="Lkk8jv3GY44CJyBHPQSU-6">
          <mxGeometry x="41" y="800" width="136" height="60" as="geometry" />
        </mxCell>
        <mxCell id="Lkk8jv3GY44CJyBHPQSU-49" value="" style="edgeStyle=orthogonalEdgeStyle;rounded=0;orthogonalLoop=1;jettySize=auto;html=1;entryX=1;entryY=0.5;entryDx=0;entryDy=0;exitX=0;exitY=0;exitDx=0;exitDy=0;" edge="1" parent="Lkk8jv3GY44CJyBHPQSU-6" source="Lkk8jv3GY44CJyBHPQSU-45" target="Lkk8jv3GY44CJyBHPQSU-47">
          <mxGeometry relative="1" as="geometry">
            <mxPoint x="382" y="680" as="sourcePoint" />
            <Array as="points">
              <mxPoint x="364" y="705" />
              <mxPoint x="364" y="500" />
            </Array>
          </mxGeometry>
        </mxCell>
        <mxCell id="Lkk8jv3GY44CJyBHPQSU-50" value="Yes" style="edgeLabel;html=1;align=center;verticalAlign=middle;resizable=0;points=[];" vertex="1" connectable="0" parent="Lkk8jv3GY44CJyBHPQSU-49">
          <mxGeometry x="-0.4691" y="1" relative="1" as="geometry">
            <mxPoint x="-1" y="-56" as="offset" />
          </mxGeometry>
        </mxCell>
        <mxCell id="Lkk8jv3GY44CJyBHPQSU-57" value="" style="edgeStyle=orthogonalEdgeStyle;rounded=0;orthogonalLoop=1;jettySize=auto;html=1;" edge="1" parent="Lkk8jv3GY44CJyBHPQSU-6" source="Lkk8jv3GY44CJyBHPQSU-45" target="Lkk8jv3GY44CJyBHPQSU-55">
          <mxGeometry relative="1" as="geometry" />
        </mxCell>
        <mxCell id="Lkk8jv3GY44CJyBHPQSU-58" value="No" style="edgeLabel;html=1;align=center;verticalAlign=middle;resizable=0;points=[];" vertex="1" connectable="0" parent="Lkk8jv3GY44CJyBHPQSU-57">
          <mxGeometry x="-0.485" relative="1" as="geometry">
            <mxPoint as="offset" />
          </mxGeometry>
        </mxCell>
        <mxCell id="Lkk8jv3GY44CJyBHPQSU-45" value="DF.BBModeChange=1?" style="rhombus;whiteSpace=wrap;html=1;" vertex="1" parent="Lkk8jv3GY44CJyBHPQSU-6">
          <mxGeometry x="376.5" y="690" width="152" height="60" as="geometry" />
        </mxCell>
        <mxCell id="Lkk8jv3GY44CJyBHPQSU-54" value="" style="edgeStyle=orthogonalEdgeStyle;rounded=0;orthogonalLoop=1;jettySize=auto;html=1;" edge="1" parent="Lkk8jv3GY44CJyBHPQSU-6" source="Lkk8jv3GY44CJyBHPQSU-47" target="Lkk8jv3GY44CJyBHPQSU-53">
          <mxGeometry relative="1" as="geometry" />
        </mxCell>
        <mxCell id="Lkk8jv3GY44CJyBHPQSU-47" value="输出赋值一个初始状态" style="whiteSpace=wrap;html=1;rounded=0;" vertex="1" parent="Lkk8jv3GY44CJyBHPQSU-6">
          <mxGeometry x="208" y="470" width="136" height="60" as="geometry" />
        </mxCell>
        <mxCell id="Lkk8jv3GY44CJyBHPQSU-56" value="" style="edgeStyle=orthogonalEdgeStyle;rounded=0;orthogonalLoop=1;jettySize=auto;html=1;" edge="1" parent="Lkk8jv3GY44CJyBHPQSU-6" source="Lkk8jv3GY44CJyBHPQSU-53" target="Lkk8jv3GY44CJyBHPQSU-55">
          <mxGeometry relative="1" as="geometry" />
        </mxCell>
        <mxCell id="Lkk8jv3GY44CJyBHPQSU-53" value="DF.BBModeChange=0" style="whiteSpace=wrap;html=1;rounded=0;" vertex="1" parent="Lkk8jv3GY44CJyBHPQSU-6">
          <mxGeometry x="208" y="580" width="136" height="60" as="geometry" />
        </mxCell>
        <mxCell id="Lkk8jv3GY44CJyBHPQSU-61" value="" style="edgeStyle=orthogonalEdgeStyle;rounded=0;orthogonalLoop=1;jettySize=auto;html=1;" edge="1" parent="Lkk8jv3GY44CJyBHPQSU-6" source="Lkk8jv3GY44CJyBHPQSU-55" target="Lkk8jv3GY44CJyBHPQSU-59">
          <mxGeometry relative="1" as="geometry" />
        </mxCell>
        <mxCell id="Lkk8jv3GY44CJyBHPQSU-55" value="输出限幅" style="whiteSpace=wrap;html=1;rounded=0;" vertex="1" parent="Lkk8jv3GY44CJyBHPQSU-6">
          <mxGeometry x="208" y="690" width="136" height="60" as="geometry" />
        </mxCell>
        <mxCell id="Lkk8jv3GY44CJyBHPQSU-70" value="" style="edgeStyle=orthogonalEdgeStyle;rounded=0;orthogonalLoop=1;jettySize=auto;html=1;" edge="1" parent="Lkk8jv3GY44CJyBHPQSU-6" source="Lkk8jv3GY44CJyBHPQSU-59" target="Lkk8jv3GY44CJyBHPQSU-69">
          <mxGeometry relative="1" as="geometry" />
        </mxCell>
        <mxCell id="Lkk8jv3GY44CJyBHPQSU-73" value="No" style="edgeLabel;html=1;align=center;verticalAlign=middle;resizable=0;points=[];" vertex="1" connectable="0" parent="Lkk8jv3GY44CJyBHPQSU-70">
          <mxGeometry x="0.2092" y="-1" relative="1" as="geometry">
            <mxPoint x="1" y="-10" as="offset" />
          </mxGeometry>
        </mxCell>
        <mxCell id="Lkk8jv3GY44CJyBHPQSU-59" value="DF.PWMENFlag=0?" style="rhombus;whiteSpace=wrap;html=1;" vertex="1" parent="Lkk8jv3GY44CJyBHPQSU-6">
          <mxGeometry x="200" y="800" width="152" height="60" as="geometry" />
        </mxCell>
        <mxCell id="Lkk8jv3GY44CJyBHPQSU-71" style="edgeStyle=orthogonalEdgeStyle;rounded=0;orthogonalLoop=1;jettySize=auto;html=1;exitX=0.5;exitY=1;exitDx=0;exitDy=0;entryX=1;entryY=0.5;entryDx=0;entryDy=0;" edge="1" parent="Lkk8jv3GY44CJyBHPQSU-6" source="Lkk8jv3GY44CJyBHPQSU-62" target="Lkk8jv3GY44CJyBHPQSU-69">
          <mxGeometry relative="1" as="geometry" />
        </mxCell>
        <mxCell id="Lkk8jv3GY44CJyBHPQSU-62" value="Buck占空比最小&lt;br&gt;Boost占空比最小&lt;br&gt;相当于关闭DCDC" style="whiteSpace=wrap;html=1;rounded=0;" vertex="1" parent="Lkk8jv3GY44CJyBHPQSU-6">
          <mxGeometry x="384.5" y="800" width="136" height="60" as="geometry" />
        </mxCell>
        <mxCell id="Lkk8jv3GY44CJyBHPQSU-66" value="" style="edgeStyle=orthogonalEdgeStyle;rounded=0;orthogonalLoop=1;jettySize=auto;html=1;" edge="1" parent="Lkk8jv3GY44CJyBHPQSU-6" source="Lkk8jv3GY44CJyBHPQSU-59" target="Lkk8jv3GY44CJyBHPQSU-62">
          <mxGeometry relative="1" as="geometry">
            <Array as="points">
              <mxPoint x="372" y="830" />
              <mxPoint x="372" y="830" />
            </Array>
          </mxGeometry>
        </mxCell>
        <mxCell id="Lkk8jv3GY44CJyBHPQSU-67" value="Yes" style="edgeLabel;html=1;align=center;verticalAlign=middle;resizable=0;points=[];" vertex="1" connectable="0" parent="Lkk8jv3GY44CJyBHPQSU-66">
          <mxGeometry x="0.0857" relative="1" as="geometry">
            <mxPoint x="2" as="offset" />
          </mxGeometry>
        </mxCell>
        <mxCell id="Lkk8jv3GY44CJyBHPQSU-69" value="使用DMA&lt;br&gt;更新PWM寄存器" style="whiteSpace=wrap;html=1;rounded=0;" vertex="1" parent="Lkk8jv3GY44CJyBHPQSU-6">
          <mxGeometry x="208" y="910" width="136" height="60" as="geometry" />
        </mxCell>
      </root>
    </mxGraphModel>
  </diagram>
</mxfile>
